<svg width="224" height="180" viewBox="0 0 224 180" fill="none" xmlns="http://www.w3.org/2000/svg">
<g clip-path="url(#clip0_501_24530)">
<path d="M177.839 55.9051C182.96 55.4764 186.29 57.6028 187.34 62.9866C188.56 63.918 189.656 64.9344 190.634 66.0211C189.301 62.1895 190.179 58.7473 194.946 55.9926C197.472 60.5929 196.807 64.5698 192.052 67.7508C193.626 69.8724 194.839 72.2387 195.644 74.7547C196.311 71.002 198.683 68.5331 203.96 68.2534C204.121 73.4094 201.806 76.6298 196.334 77.3801C196.891 80.093 197.003 82.8834 196.688 85.6222C198.825 82.4559 201.998 81.1586 206.941 83.0522C204.988 87.8324 201.559 89.8319 196.245 88.2821C195.701 90.7767 194.791 93.1768 193.543 95.4043C196.537 93.2643 199.892 93.162 203.849 96.4786C200.425 100.386 196.505 101.145 191.948 97.8806C190.291 100.151 188.238 102.104 185.888 103.646C185.751 103.727 185.589 103.753 185.434 103.717C185.279 103.681 185.144 103.587 185.058 103.454C184.971 103.321 184.938 103.16 184.967 103.004C184.997 102.848 185.085 102.709 185.214 102.616C187.081 101.392 188.752 99.8921 190.169 98.1664C186.481 100.122 182.666 99.7002 179.157 95.3722C183.268 92.185 187.562 92.3612 191.44 96.465C193.054 94.0706 194.228 91.4076 194.907 88.6012C190.989 90.8767 186.943 90.5945 183.318 85.9585C187.367 82.9315 191.531 83.083 195.256 86.9195C195.771 83.9516 195.755 80.8851 195.179 77.9111C192.089 81.2128 188.411 82.1467 183.635 78.6811C186.632 74.7387 190.276 73.6176 194.744 76.0656C194.024 73.4398 192.842 70.963 191.254 68.7512C188.44 72.4792 184.814 73.848 179.651 70.7482C182.148 66.7861 185.444 65.288 189.741 66.8711C188.785 65.8082 187.732 64.8369 186.595 63.9698C181.827 64.0191 178.478 61.9702 177.839 55.9051Z" fill="url(#paint0_linear_501_24530)"/>
</g>
<g clip-path="url(#clip1_501_24530)">
<path d="M45.041 55.9051C39.9196 55.4764 36.5895 57.6028 35.5398 62.9866C34.3202 63.918 33.2237 64.9344 32.2455 66.0211C33.5785 62.1895 32.7013 58.7473 27.9335 55.9926C25.4079 60.5929 26.0731 64.5698 30.8274 67.7508C29.2539 69.8724 28.0406 72.2387 27.2362 74.7547C26.5684 71.002 24.1968 68.5331 18.9202 68.2534C18.7588 73.4094 21.0737 76.6298 26.5462 77.3801C25.9894 80.093 25.8773 82.8834 26.1914 85.6222C24.0551 82.4559 20.8815 81.1586 15.9387 83.0522C17.8914 87.8324 21.3213 89.8319 26.6349 88.2821C27.1784 90.7767 28.0889 93.1768 29.3367 95.4043C26.343 93.2643 22.9882 93.162 19.031 96.4786C22.4548 100.386 26.375 101.145 30.9322 97.8806C32.589 100.151 34.642 102.104 36.9924 103.646C37.1288 103.727 37.2913 103.753 37.446 103.717C37.6006 103.681 37.7354 103.587 37.8223 103.454C37.9092 103.321 37.9415 103.16 37.9124 103.004C37.8834 102.848 37.7952 102.709 37.6663 102.616C35.7988 101.392 34.128 99.8921 32.7112 98.1664C36.3985 100.122 40.214 99.7002 43.7228 95.3722C39.6116 92.185 35.3181 92.3612 31.4397 96.465C29.826 94.0706 28.652 91.4076 27.9729 88.6012C31.8906 90.8767 35.9365 90.5945 39.5623 85.9585C35.5127 82.9315 31.3486 83.083 27.6242 86.9195C27.1093 83.9516 27.1253 80.8851 27.7006 77.9111C30.7905 81.2128 34.4692 82.1467 39.2445 78.6811C36.2482 74.7387 32.604 73.6176 28.1355 76.0656C28.856 73.4398 30.0378 70.963 31.6258 68.7512C34.4397 72.4792 38.0654 73.848 43.2287 70.7482C40.7315 66.7861 37.4359 65.288 33.1387 66.8711C34.095 65.8082 35.1484 64.8369 36.2852 63.9698C41.053 64.0191 44.4016 61.9702 45.041 55.9051Z" fill="url(#paint1_linear_501_24530)"/>
</g>
<path d="M111.344 158C93.0781 158 75.9062 150.891 63 137.984C50.0938 125.078 42.9844 107.906 42.9844 89.6406C42.9844 71.375 50.0938 54.2031 63 41.2969C75.9062 28.3906 93.0781 21.2812 111.344 21.2812C129.609 21.2812 146.781 28.3906 159.688 41.2969C172.594 54.2031 179.703 71.375 179.703 89.6406C179.703 107.906 172.594 125.078 159.688 137.984C146.781 150.891 129.609 158 111.344 158ZM111.344 26.3781C76.475 26.3781 48.1031 54.75 48.1031 89.6188C48.1031 124.488 76.475 152.859 111.344 152.859C146.213 152.859 174.584 124.488 174.584 89.6188C174.606 54.75 146.234 26.3781 111.344 26.3781Z" fill="url(#paint2_linear_501_24530)"/>
<path d="M111.344 158C93.0781 158 75.9062 150.891 63 137.984C50.0938 125.078 42.9844 107.906 42.9844 89.6406C42.9844 71.375 50.0938 54.2031 63 41.2969C75.9062 28.3906 93.0781 21.2812 111.344 21.2812C129.609 21.2812 146.781 28.3906 159.688 41.2969C172.594 54.2031 179.703 71.375 179.703 89.6406C179.703 107.906 172.594 125.078 159.688 137.984C146.781 150.891 129.609 158 111.344 158ZM111.344 26.3781C76.475 26.3781 48.1031 54.75 48.1031 89.6188C48.1031 124.488 76.475 152.859 111.344 152.859C146.213 152.859 174.584 124.488 174.584 89.6188C174.606 54.75 146.234 26.3781 111.344 26.3781Z" fill="url(#paint3_linear_501_24530)"/>
<path d="M126.56 36.3274C149.765 42.9505 166.797 64.3324 166.797 89.6389C166.797 120.198 141.903 145.07 111.344 145.07C80.7845 145.07 55.9126 120.198 55.9126 89.6389C55.9126 64.8978 72.2153 43.8846 94.6401 36.78M126.56 31.6602C136.746 34.3132 146.083 39.6343 153.716 47.267C165.025 58.5764 171.259 73.6264 171.259 89.6389C171.259 105.651 165.025 120.701 153.716 132.011C142.406 143.32 127.356 149.555 111.344 149.555C95.3313 149.555 80.2813 143.32 68.972 132.011C57.6626 120.701 51.4282 105.651 51.4282 89.6389C51.4282 73.6264 57.6626 58.5764 68.972 47.267C76.2316 40.0074 85.0326 34.8389 94.6401 32.0683" stroke="#848484" stroke-width="0.56"/>
<path d="M111.601 24.2031L108.177 31.1906L100.401 32.3181L106.034 37.8252L104.688 45.4831L111.601 41.7979L118.515 45.4831L117.178 37.8252L122.801 32.3181L115.068 31.1906L111.601 24.2031Z" fill="#848484"/>
<path d="M1.20312 144.763H49.35L42.9188 142.007L22.925 133.454V115.035H1.20312L3.7625 117.616L16.5156 130.545L3.89375 142.007L1.20312 144.763Z" fill="url(#paint4_linear_501_24530)"/>
<path d="M22.9248 102.043V133.455H199.784V102.043H22.9248Z" fill="url(#paint5_linear_501_24530)"/>
<path d="M206.194 130.545L218.947 117.616L221.506 115.035H199.784V133.454L179.791 142.007L173.359 144.763H221.506L218.816 142.007L206.194 130.545Z" fill="url(#paint6_linear_501_24530)"/>
<path d="M192.719 133.457H173.359V144.766L199.784 133.457H192.719ZM22.9248 133.457L49.3498 144.766V133.457H29.9686H22.9248Z" fill="#595757"/>
<path d="M46.0095 112.973V111.241H55.1079V112.973H51.5833V122.645H49.5342V112.973H46.0095ZM56.8619 122.645V111.241H61.1383C62.0143 111.241 62.7493 111.393 63.3433 111.697C63.9409 112.002 64.3919 112.429 64.6963 112.978C65.0044 113.524 65.1585 114.16 65.1585 114.888C65.1585 115.619 65.0026 116.254 64.6908 116.792C64.3827 117.327 63.9279 117.741 63.3266 118.034C62.7252 118.324 61.9865 118.468 61.1104 118.468H58.0646V116.753H60.832C61.3443 116.753 61.7638 116.683 62.0904 116.542C62.4171 116.397 62.6584 116.187 62.8143 115.913C62.9739 115.634 63.0537 115.293 63.0537 114.888C63.0537 114.483 62.9739 114.138 62.8143 113.852C62.6547 113.563 62.4115 113.344 62.0849 113.195C61.7582 113.043 61.3369 112.967 60.8209 112.967H58.9277V122.645H56.8619ZM62.753 117.477L65.5761 122.645H63.2709L60.4979 117.477H62.753ZM68.5245 122.645H66.3195L70.3341 111.241H72.8843L76.9046 122.645H74.6996L71.6538 113.58H71.5647L68.5245 122.645ZM68.5968 118.173H74.6105V119.833H68.5968V118.173ZM87.7778 111.241V122.645H85.9403L80.567 114.877H80.4724V122.645H78.4066V111.241H80.2552L85.623 119.014H85.7232V111.241H87.7778ZM91.4932 122.645H89.2882L93.3029 111.241H95.8531L99.8733 122.645H97.6683L94.6225 113.58H94.5334L91.4932 122.645ZM91.5656 118.173H97.5792V119.833H91.5656V118.173ZM101.375 122.645V111.241H105.652C106.528 111.241 107.263 111.404 107.857 111.731C108.454 112.058 108.905 112.507 109.21 113.078C109.518 113.646 109.672 114.292 109.672 115.016C109.672 115.747 109.518 116.397 109.21 116.965C108.902 117.533 108.447 117.98 107.846 118.307C107.244 118.63 106.504 118.791 105.624 118.791H102.79V117.093H105.345C105.858 117.093 106.277 117.004 106.604 116.826C106.931 116.648 107.172 116.403 107.328 116.091C107.487 115.779 107.567 115.421 107.567 115.016C107.567 114.612 107.487 114.255 107.328 113.947C107.172 113.639 106.929 113.399 106.598 113.229C106.272 113.054 105.85 112.967 105.334 112.967H103.441V122.645H101.375ZM111.66 122.645H109.455L113.469 111.241H116.02L120.04 122.645H117.835L114.789 113.58H114.7L111.66 122.645ZM111.732 118.173H117.746V119.833H111.732V118.173ZM121.542 122.645V111.241H125.818C126.694 111.241 127.429 111.393 128.023 111.697C128.621 112.002 129.072 112.429 129.376 112.978C129.684 113.524 129.838 114.16 129.838 114.888C129.838 115.619 129.683 116.254 129.371 116.792C129.063 117.327 128.608 117.741 128.007 118.034C127.405 118.324 126.666 118.468 125.79 118.468H122.745V116.753H125.512C126.024 116.753 126.444 116.683 126.77 116.542C127.097 116.397 127.338 116.187 127.494 115.913C127.654 115.634 127.734 115.293 127.734 114.888C127.734 114.483 127.654 114.138 127.494 113.852C127.335 113.563 127.092 113.344 126.765 113.195C126.438 113.043 126.017 112.967 125.501 112.967H123.608V122.645H121.542ZM127.433 117.477L130.256 122.645H127.951L125.178 117.477H127.433ZM131.74 122.645V111.241H139.157V112.973H133.806V116.069H138.773V117.8H133.806V120.913H139.201V122.645H131.74ZM150.636 111.241V122.645H148.798L143.425 114.877H143.33V122.645H141.264V111.241H143.113L148.481 119.014H148.581V111.241H150.636ZM162.648 115.089H160.565C160.506 114.747 160.396 114.444 160.237 114.181C160.077 113.914 159.878 113.687 159.641 113.502C159.403 113.316 159.132 113.177 158.828 113.084C158.527 112.987 158.202 112.939 157.853 112.939C157.233 112.939 156.684 113.095 156.205 113.407C155.726 113.715 155.351 114.168 155.08 114.766C154.809 115.359 154.674 116.085 154.674 116.943C154.674 117.815 154.809 118.55 155.08 119.148C155.355 119.742 155.73 120.191 156.205 120.495C156.684 120.796 157.232 120.946 157.848 120.946C158.189 120.946 158.509 120.902 158.806 120.813C159.106 120.72 159.375 120.584 159.613 120.406C159.854 120.228 160.057 120.009 160.22 119.749C160.387 119.489 160.502 119.192 160.565 118.858L162.648 118.869C162.57 119.411 162.401 119.92 162.141 120.395C161.885 120.87 161.549 121.29 161.133 121.653C160.717 122.013 160.231 122.296 159.674 122.5C159.117 122.7 158.499 122.8 157.82 122.8C156.818 122.8 155.923 122.568 155.136 122.104C154.349 121.64 153.729 120.97 153.276 120.094C152.823 119.218 152.597 118.168 152.597 116.943C152.597 115.714 152.825 114.663 153.282 113.791C153.739 112.915 154.36 112.245 155.147 111.781C155.934 111.317 156.825 111.085 157.82 111.085C158.455 111.085 159.045 111.174 159.591 111.352C160.136 111.53 160.623 111.792 161.05 112.137C161.476 112.479 161.827 112.898 162.102 113.396C162.38 113.889 162.562 114.454 162.648 115.089ZM163.76 111.241H166.093L168.883 116.286H168.994L171.784 111.241H174.117L169.968 118.39V122.645H167.908V118.39L163.76 111.241Z" fill="white"/>
<path d="M86.6542 75.2695C86.5799 74.5748 86.2671 74.0339 85.7155 73.6468C85.1693 73.2597 84.4587 73.0661 83.5837 73.0661C82.9686 73.0661 82.4409 73.1589 82.0008 73.3445C81.5606 73.5301 81.2239 73.782 80.9905 74.1002C80.7572 74.4184 80.6379 74.7817 80.6326 75.19C80.6326 75.5294 80.7095 75.8237 80.8633 76.0729C81.0224 76.3222 81.2371 76.5343 81.5076 76.7093C81.778 76.879 82.0777 77.0222 82.4064 77.1388C82.7352 77.2555 83.0667 77.3536 83.4008 77.4332L84.928 77.815C85.5432 77.9582 86.1345 78.1517 86.7019 78.3957C87.2746 78.6396 87.7864 78.9472 88.2371 79.3184C88.6932 79.6896 89.0538 80.1377 89.3189 80.6627C89.5841 81.1877 89.7167 81.8029 89.7167 82.5082C89.7167 83.4627 89.4727 84.3032 88.9849 85.0298C88.497 85.751 87.7917 86.3157 86.8689 86.7241C85.9515 87.1271 84.8405 87.3286 83.536 87.3286C82.2686 87.3286 81.1682 87.1324 80.2349 86.74C79.3068 86.3476 78.5803 85.7748 78.0553 85.0218C77.5356 84.2688 77.2546 83.3513 77.2121 82.2695H80.1155C80.158 82.837 80.333 83.3089 80.6405 83.6854C80.9481 84.062 81.3485 84.343 81.8417 84.5286C82.3402 84.7142 82.897 84.807 83.5121 84.807C84.1538 84.807 84.7159 84.7116 85.1985 84.5207C85.6864 84.3245 86.0682 84.054 86.3439 83.7093C86.6197 83.3593 86.7602 82.951 86.7655 82.4843C86.7602 82.0601 86.6356 81.7101 86.3917 81.4343C86.1477 81.1532 85.8057 80.9199 85.3655 80.7343C84.9307 80.5434 84.4216 80.3737 83.8383 80.2252L81.9849 79.7479C80.6432 79.4032 79.5826 78.8809 78.803 78.1809C78.0288 77.4756 77.6417 76.5396 77.6417 75.3729C77.6417 74.4131 77.9015 73.5726 78.4212 72.8513C78.9462 72.1301 79.6595 71.5707 80.561 71.1729C81.4625 70.7699 82.4833 70.5684 83.6235 70.5684C84.7796 70.5684 85.7924 70.7699 86.6621 71.1729C87.5371 71.5707 88.2239 72.1248 88.7224 72.8354C89.2208 73.5407 89.478 74.3521 89.4939 75.2695H86.6542ZM92.3476 87.082V70.7911H95.2988V84.6082H102.474V87.082H92.3476ZM105.53 70.7911L109.77 83.6138H109.937L114.169 70.7911H117.414L111.671 87.082H108.028L102.293 70.7911H105.53ZM119.56 87.082V70.7911H130.156V73.265H122.511V77.6877H129.607V80.1616H122.511V84.6082H130.219V87.082H119.56ZM133.166 87.082V70.7911H139.275C140.527 70.7911 141.577 71.0085 142.425 71.4434C143.279 71.8782 143.924 72.4881 144.358 73.2729C144.799 74.0525 145.019 74.962 145.019 76.0013C145.019 77.046 144.796 77.9529 144.35 78.7218C143.91 79.4854 143.261 80.0767 142.402 80.4957C141.543 80.9093 140.487 81.1161 139.236 81.1161H134.885V78.6661H138.838C139.57 78.6661 140.169 78.5654 140.636 78.3638C141.102 78.157 141.447 77.8574 141.67 77.465C141.898 77.0673 142.012 76.5794 142.012 76.0013C142.012 75.4233 141.898 74.9301 141.67 74.5218C141.442 74.1082 141.094 73.7953 140.628 73.5832C140.161 73.3657 139.559 73.257 138.822 73.257H136.118V87.082H133.166ZM141.582 79.7002L145.615 87.082H142.322L138.361 79.7002H141.582Z" fill="#8E8E8E"/>
<defs>
<linearGradient id="paint0_linear_501_24530" x1="177.839" y1="79.7921" x2="206.941" y2="79.7921" gradientUnits="userSpaceOnUse">
<stop stop-color="#BABABA"/>
<stop offset="1" stop-color="#828282"/>
</linearGradient>
<linearGradient id="paint1_linear_501_24530" x1="45.041" y1="79.7921" x2="15.9387" y2="79.7921" gradientUnits="userSpaceOnUse">
<stop stop-color="#BABABA"/>
<stop offset="1" stop-color="#828282"/>
</linearGradient>
<linearGradient id="paint2_linear_501_24530" x1="111.344" y1="21.2812" x2="111.344" y2="158" gradientUnits="userSpaceOnUse">
<stop stop-color="#F5DBA7"/>
<stop offset="1" stop-color="#BD7F26"/>
</linearGradient>
<linearGradient id="paint3_linear_501_24530" x1="111.344" y1="21.2812" x2="111.344" y2="158" gradientUnits="userSpaceOnUse">
<stop stop-color="#C0C0C0"/>
<stop offset="1" stop-color="#777777"/>
</linearGradient>
<linearGradient id="paint4_linear_501_24530" x1="1.20312" y1="129.899" x2="49.35" y2="129.899" gradientUnits="userSpaceOnUse">
<stop stop-color="#BABABA"/>
<stop offset="1" stop-color="#828282"/>
</linearGradient>
<linearGradient id="paint5_linear_501_24530" x1="22.9248" y1="117.749" x2="199.784" y2="117.749" gradientUnits="userSpaceOnUse">
<stop stop-color="#BABABA"/>
<stop offset="1" stop-color="#828282"/>
</linearGradient>
<linearGradient id="paint6_linear_501_24530" x1="173.359" y1="129.899" x2="221.506" y2="129.899" gradientUnits="userSpaceOnUse">
<stop stop-color="#BABABA"/>
<stop offset="1" stop-color="#828282"/>
</linearGradient>
<clipPath id="clip0_501_24530">
<rect width="49.28" height="49.28" fill="white" transform="translate(168 55.0039)"/>
</clipPath>
<clipPath id="clip1_501_24530">
<rect width="49.28" height="49.28" fill="white" transform="matrix(-1 0 0 1 54.8799 55.0039)"/>
</clipPath>
</defs>
</svg>
